M48
METRIC,TZ
T1C0.400
T2C0.600
T3C0.800
T4C0.850
T5C1.000
T6C1.300
T7C4.000
%
G90
G05
T1
X46150Y-59775
X49400Y-98775
X50125Y-120625
X50150Y-125675
X53075Y-115475
X55100Y-58025
X55275Y-64600
X55825Y-60750
X59225Y-69075
X60225Y-43225
X60675Y-77525
X60675Y-88900
X61025Y-50850
X62500Y-42025
X62550Y-83850
X63475Y-44550
X63525Y-120550
X65200Y-59800
X66725Y-105900
X68225Y-98775
X72450Y-40750
X73250Y-47100
X74850Y-66600
X80900Y-45925
X81200Y-124375
X82500Y-98775
X84050Y-101475
X84650Y-116775
X84750Y-136175
X85523Y-135540
X85600Y-118300
X86325Y-115475
X86325Y-134800
X87200Y-123125
X87225Y-120525
X89900Y-115450
X89900Y-126975
X90600Y-106050
X93725Y-79850
X95525Y-138650
X96600Y-60750
X96600Y-114250
X97325Y-104350
X97550Y-69125
X97550Y-81325
X98375Y-99325
X98625Y-59350
X100000Y-97700
X101800Y-79125
X101950Y-120525
X107700Y-106050
X107760Y-140820
X107875Y-142430
X110270Y-138650
X112050Y-86375
X112050Y-99950
X112225Y-121850
X112250Y-112950
X112850Y-90025
X113275Y-120125
X113275Y-128200
X114950Y-144250
X116150Y-142425
X120450Y-42000
X124650Y-88925
X124850Y-81300
X126175Y-136275
X126200Y-145200
X128225Y-134800
X128440Y-133340
X128675Y-143525
X129250Y-64600
X129340Y-147340
X130730Y-135520
X131775Y-133360
X132050Y-124380
X132225Y-85000
X132225Y-88850
X135425Y-143525
X136940Y-144250
X152400Y-70075
X153675Y-119625
X157115Y-96079
X159575Y-131950
X159650Y-82525
X160400Y-85000
X163795Y-83795
X167100Y-110175
X167850Y-41925
X167900Y-52100
X168675Y-39425
X168775Y-49675
X169250Y-76200
X169700Y-78700
X170150Y-91425
X170250Y-44225
X170300Y-39500
X170875Y-93925
X171225Y-45000
X171325Y-48450
X171925Y-91475
X171925Y-96100
X172125Y-43175
X172150Y-66100
X172325Y-124325
X172400Y-104125
X173050Y-126875
X173075Y-106800
X173150Y-45775
X173150Y-64900
X174650Y-99325
X174700Y-92675
X175500Y-53375
X175500Y-62375
X176000Y-97775
X176475Y-129375
X176650Y-74225
X176800Y-55950
X176825Y-59775
X177200Y-130750
X177250Y-109250
X177250Y-111725
X177550Y-70075
X181400Y-97750
X181425Y-136100
X182425Y-87650
X182454Y-136103
X183475Y-85075
X183477Y-136101
X184465Y-135850
X184525Y-95250
X185200Y-97775
X185350Y-135325
X186000Y-119375
X186075Y-100375
X186875Y-105400
X186890Y-49660
X186950Y-114325
X187000Y-127000
X187725Y-124500
X187750Y-113000
X187750Y-116800
X187780Y-59820
X188475Y-115550
X188490Y-62360
X188600Y-119150
X188600Y-121900
X189200Y-64900
X189210Y-118100
X189925Y-120625
X189935Y-67440
X190675Y-130775
X190678Y-76636
X191425Y-77300
X191425Y-128250
X191500Y-55950
X191525Y-57325
X192100Y-125725
X192150Y-78000
X192850Y-123150
X192875Y-78750
X196950Y-52200
X197075Y-57200
X197400Y-130100
X197425Y-58800
X197875Y-86325
X198050Y-141725
X199025Y-123525
X199025Y-131950
X205130Y-49610
X205855Y-90220
X206370Y-94870
X207240Y-96250
X208225Y-89000
X208260Y-57110
X210000Y-98550
X211670Y-105810
X212440Y-118550
X212470Y-95690
X214200Y-115575
X215530Y-102530
X216660Y-132830
X216670Y-105840
X217525Y-135000
X217525Y-138100
X220160Y-94320
X220550Y-142250
X220650Y-54750
X220650Y-59150
X221275Y-141475
X221540Y-102530
X222043Y-140835
X222075Y-135000
X222775Y-115600
X222775Y-140125
X223428Y-139368
X223470Y-96010
X223500Y-81250
X225850Y-36350
X226250Y-111350
X227590Y-95970
X229715Y-70325
X231825Y-86325
X231920Y-68950
X234100Y-91160
X235950Y-38350
X235975Y-45425
X238570Y-57110
X240025Y-36225
X241450Y-95860
X242175Y-64025
X242820Y-132830
X242950Y-113475
X245650Y-74500
X247700Y-88325
X248900Y-70325
X251990Y-135060
X252325Y-93975
X254050Y-48980
X258375Y-73700
X263150Y-68025
X263250Y-125800
X263600Y-86000
X274160Y-112500
X275500Y-71175
X278760Y-98770
X280000Y-44550
X284150Y-42675
X285825Y-56850
X287150Y-84900
X288300Y-42675
X288300Y-43775
X289200Y-56875
X291250Y-81000
X292475Y-43775
X296910Y-98740
X296925Y-114525
X299125Y-35750
X299450Y-38750
X301850Y-107960
X303275Y-94550
X304160Y-75650
X304700Y-82225
X307250Y-98525
X310975Y-93250
X311125Y-117075
X312925Y-114525
T2
X77475Y-93725
X87725Y-57050
X89750Y-93725
X102375Y-131000
X106975Y-93725
X107100Y-57050
X138375Y-73700
X138375Y-91000
X138375Y-106650
X138375Y-108075
X138950Y-37275
X138950Y-44300
X139725Y-90925
X140175Y-73675
X140200Y-36150
X142775Y-93675
X142900Y-57025
X143450Y-67375
X144125Y-57025
X144125Y-93675
X144600Y-130825
X145975Y-130825
X149825Y-143900
X149850Y-145450
X163015Y-67440
X201740Y-44218
X201950Y-129675
X202075Y-70725
X203475Y-73700
X203475Y-92370
X203475Y-117070
X203475Y-120675
X203600Y-82760
X204150Y-145325
X204175Y-144100
X206200Y-141075
X208500Y-146725
X208700Y-141125
X224970Y-117140
X236750Y-118560
X251120Y-129720
X253280Y-52210
X254760Y-69300
X260780Y-69300
X261260Y-83470
X262650Y-65750
X270660Y-65750
X283000Y-113000
X283000Y-115000
X283000Y-117000
X283000Y-119000
X283000Y-121000
X283000Y-123000
X283000Y-125000
X283000Y-127000
X285000Y-113000
X285000Y-115000
X285000Y-117000
X285000Y-119000
X285000Y-121000
X285000Y-123000
X285000Y-125000
X285000Y-127000
X287000Y-113000
X287000Y-115000
X287000Y-117000
X287000Y-123000
X287000Y-125000
X287000Y-127000
X289000Y-113000
X289000Y-115000
X289000Y-117000
X289000Y-123000
X289000Y-125000
X289000Y-127000
X291000Y-113000
X291000Y-115000
X291000Y-117000
X291000Y-123000
X291000Y-125000
X291000Y-127000
X295065Y-68115
X305050Y-112020
X305080Y-119620
X306610Y-49590
X244435Y-68425
X245705Y-68425
X246975Y-68425
X236010Y-52075
X237280Y-52075
X238550Y-52075
X287110Y-52400
X288380Y-52400
X289650Y-52400
X244335Y-62075
X245605Y-62075
X246875Y-62075
X268125Y-68030
X268125Y-69300
X268125Y-70570
X268125Y-60555
X268125Y-61825
X268125Y-63095
X229185Y-52075
X230455Y-52075
X231725Y-52075
X220225Y-113150
X221495Y-113150
X222765Y-113150
X154575Y-101050
X155845Y-101050
X157115Y-101050
X263210Y-52300
X264480Y-52300
X265750Y-52300
T3
X263600Y-77900
X263600Y-90600
X153600Y-117975
X153600Y-130675
X287150Y-77925
X287150Y-90625
X74900Y-39500
X74900Y-42040
X74900Y-44580
X74900Y-47120
X74900Y-49660
X74900Y-52200
X74900Y-54740
X82520Y-39500
X82520Y-42040
X82520Y-44580
X82520Y-47120
X82520Y-49660
X82520Y-52200
X82520Y-54740
X174650Y-89650
X174650Y-102350
X308675Y-34425
X308675Y-47125
X259875Y-93975
X259875Y-106675
X296925Y-111875
X296925Y-124575
X222075Y-125350
X222075Y-138050
X92400Y-76125
X92400Y-78665
X92400Y-81205
X92400Y-83745
X92400Y-86285
X92400Y-88825
X92400Y-91365
X100020Y-76125
X100020Y-78665
X100020Y-81205
X100020Y-83745
X100020Y-86285
X100020Y-88825
X100020Y-91365
X120450Y-34375
X120450Y-47075
X174750Y-105375
X174750Y-118075
X227775Y-59300
X227775Y-72000
X263250Y-34425
X263250Y-47125
X196630Y-149700
X196630Y-153500
X293350Y-59325
X293350Y-72025
X271900Y-77900
X271900Y-90600
X179400Y-85075
X179400Y-87615
X179400Y-90155
X179400Y-92695
X179400Y-95235
X179400Y-97775
X179400Y-100315
X179400Y-102855
X179400Y-105395
X179400Y-107935
X179400Y-110475
X179400Y-113015
X179400Y-115555
X179400Y-118095
X179400Y-120635
X179400Y-123175
X179400Y-125715
X179400Y-128255
X179400Y-130795
X179400Y-133335
X194640Y-85075
X194640Y-87615
X194640Y-90155
X194640Y-92695
X194640Y-95235
X194640Y-97775
X194640Y-100315
X194640Y-102855
X194640Y-105395
X194640Y-107935
X194640Y-110475
X194640Y-113015
X194640Y-115555
X194640Y-118095
X194640Y-120635
X194640Y-123175
X194640Y-125715
X194640Y-128255
X194640Y-130795
X194640Y-133335
X263100Y-59325
X263100Y-72025
X254950Y-34425
X254950Y-47125
X312900Y-105825
X312900Y-118525
X87900Y-76450
X87900Y-81450
X87900Y-86650
X87900Y-99350
X169550Y-99325
X169550Y-101825
X238725Y-109400
X238725Y-122100
X299100Y-86950
X299100Y-89490
X299100Y-92030
X299100Y-94570
X306720Y-86950
X306720Y-89490
X306720Y-92030
X306720Y-94570
X175250Y-41500
X175250Y-46500
X121900Y-110425
X121900Y-123125
X278850Y-52725
X281350Y-52725
X238650Y-125350
X238650Y-138050
X124450Y-34375
X124450Y-47075
X70150Y-112825
X70150Y-117825
X303225Y-59325
X303225Y-72025
X70425Y-128500
X70425Y-131000
X92400Y-112925
X92400Y-115465
X92400Y-118005
X92400Y-120545
X92400Y-123085
X92400Y-125625
X92400Y-128165
X100020Y-112925
X100020Y-115465
X100020Y-118005
X100020Y-120545
X100020Y-123085
X100020Y-125625
X100020Y-128165
X74975Y-112950
X74975Y-115490
X74975Y-118030
X74975Y-120570
X74975Y-123110
X74975Y-125650
X74975Y-128190
X82595Y-112950
X82595Y-115490
X82595Y-118030
X82595Y-120570
X82595Y-123110
X82595Y-125650
X82595Y-128190
X317100Y-123225
X317100Y-128225
X252350Y-103775
X252350Y-106275
X298175Y-71225
X298175Y-73725
X230400Y-109390
X230400Y-122090
X109825Y-112925
X109825Y-115465
X109825Y-118005
X109825Y-120545
X109825Y-123085
X109825Y-125625
X109825Y-128165
X117445Y-112925
X117445Y-115465
X117445Y-118005
X117445Y-120545
X117445Y-123085
X117445Y-125625
X117445Y-128165
X223500Y-77850
X223500Y-90550
X149325Y-108175
X149325Y-113175
X264875Y-111150
X264875Y-123850
X240225Y-59325
X240225Y-72025
X160750Y-109540
X163250Y-109540
X223480Y-93540
X223480Y-106240
X301375Y-111975
X301375Y-114515
X301375Y-117055
X301375Y-119595
X308995Y-111975
X308995Y-114515
X308995Y-117055
X308995Y-119595
X179375Y-39500
X179375Y-42040
X179375Y-44580
X179375Y-47120
X179375Y-49660
X179375Y-52200
X179375Y-54740
X179375Y-57280
X179375Y-59820
X179375Y-62360
X179375Y-64900
X179375Y-67440
X194615Y-39500
X194615Y-42040
X194615Y-44580
X194615Y-47120
X194615Y-49660
X194615Y-52200
X194615Y-54740
X194615Y-57280
X194615Y-59820
X194615Y-62360
X194615Y-64900
X194615Y-67440
X149400Y-40075
X149400Y-42575
X218100Y-149025
X218100Y-154025
X234500Y-125350
X234500Y-138050
X229925Y-34450
X229925Y-47150
X220075Y-120250
X222575Y-120250
X210325Y-76175
X210325Y-78715
X210325Y-81255
X210325Y-83795
X210325Y-86335
X210325Y-88875
X210325Y-91415
X217945Y-76175
X217945Y-78715
X217945Y-81255
X217945Y-83795
X217945Y-86335
X217945Y-88875
X217945Y-91415
X57550Y-112950
X57550Y-115490
X57550Y-118030
X57550Y-120570
X57550Y-123110
X57550Y-125650
X57550Y-128190
X65170Y-112950
X65170Y-115490
X65170Y-118030
X65170Y-120570
X65170Y-123110
X65170Y-125650
X65170Y-128190
X225800Y-34450
X225800Y-47150
X234550Y-109400
X234550Y-122100
X312850Y-34425
X312850Y-47125
X269700Y-103875
X273500Y-103875
X227625Y-93550
X227625Y-106250
X74875Y-76275
X74875Y-78815
X74875Y-81355
X74875Y-83895
X74875Y-86435
X74875Y-88975
X74875Y-91515
X82495Y-76275
X82495Y-78815
X82495Y-81355
X82495Y-83895
X82495Y-86435
X82495Y-88975
X82495Y-91515
X236075Y-59325
X236075Y-72025
X226225Y-125350
X226225Y-138050
X238225Y-34425
X238225Y-47125
X273275Y-59320
X273275Y-72020
X77525Y-101475
X80025Y-101475
X231825Y-77850
X231825Y-90550
X157975Y-39400
X157975Y-41940
X157975Y-44480
X157975Y-47020
X157975Y-49560
X157975Y-52100
X157975Y-54640
X157975Y-57180
X165595Y-39400
X165595Y-41940
X165595Y-44480
X165595Y-47020
X165595Y-49560
X165595Y-52100
X165595Y-54640
X165595Y-57180
X288300Y-34425
X288300Y-47125
X105300Y-39550
X105300Y-52250
X214250Y-109375
X214250Y-122075
X225450Y-149700
X225450Y-153500
X267900Y-136900
X267900Y-141900
X210325Y-39450
X210325Y-41990
X210325Y-44530
X210325Y-47070
X210325Y-49610
X210325Y-52150
X210325Y-54690
X217945Y-39450
X217945Y-41990
X217945Y-44530
X217945Y-47070
X217945Y-49610
X217945Y-52150
X217945Y-54690
X279975Y-34425
X279975Y-47125
X271600Y-34425
X271600Y-47125
X280900Y-59325
X280900Y-72025
X105075Y-77150
X105075Y-82150
X207240Y-92410
X207240Y-105110
X222650Y-60425
X222650Y-62925
X153450Y-81675
X153450Y-94375
X104575Y-62775
X107075Y-62775
X189425Y-148975
X189425Y-153975
X123600Y-70875
X136300Y-70875
X250775Y-46100
X250775Y-48600
X275750Y-34425
X275750Y-47125
X87900Y-39575
X87900Y-44575
X246600Y-103775
X246600Y-106275
X127300Y-76175
X127300Y-78715
X127300Y-81255
X127300Y-83795
X127300Y-86335
X127300Y-88875
X127300Y-91415
X134920Y-76175
X134920Y-78715
X134920Y-81255
X134920Y-83795
X134920Y-86335
X134920Y-88875
X134920Y-91415
X127275Y-112925
X127275Y-115465
X127275Y-118005
X127275Y-120545
X127275Y-123085
X127275Y-125625
X127275Y-128165
X134895Y-112925
X134895Y-115465
X134895Y-118005
X134895Y-120545
X134895Y-123085
X134895Y-125625
X134895Y-128165
X149275Y-85925
X149275Y-90925
X250650Y-59325
X250650Y-72025
X259825Y-109400
X259825Y-122100
X242800Y-52450
X245300Y-52450
X269975Y-52700
X272475Y-52700
X105250Y-110275
X105250Y-122975
X292450Y-34425
X292450Y-47125
X92350Y-39300
X92350Y-41840
X92350Y-44380
X92350Y-46920
X92350Y-49460
X92350Y-52000
X92350Y-54540
X99970Y-39300
X99970Y-41840
X99970Y-44380
X99970Y-46920
X99970Y-49460
X99970Y-52000
X99970Y-54540
X241425Y-93550
X241425Y-106250
X159350Y-136350
X164350Y-136350
X231925Y-59325
X231925Y-72025
X227650Y-77850
X227650Y-90550
X222250Y-52400
X224750Y-52400
X109825Y-76200
X109825Y-78740
X109825Y-81280
X109825Y-83820
X109825Y-86360
X109825Y-88900
X109825Y-91440
X117445Y-76200
X117445Y-78740
X117445Y-81280
X117445Y-83820
X117445Y-86360
X117445Y-88900
X117445Y-91440
X149425Y-75825
X149425Y-78325
X226250Y-109375
X226250Y-122075
X317000Y-34400
X317000Y-47100
X147450Y-100775
X149950Y-100775
X276150Y-136950
X276150Y-140750
X107225Y-66800
X119925Y-66800
X247475Y-110950
X247475Y-113490
X247475Y-116030
X247475Y-118570
X247475Y-121110
X247475Y-123650
X247475Y-126190
X255095Y-110950
X255095Y-113490
X255095Y-116030
X255095Y-118570
X255095Y-121110
X255095Y-123650
X255095Y-126190
X57575Y-39475
X57575Y-42015
X57575Y-44555
X57575Y-47095
X57575Y-49635
X57575Y-52175
X57575Y-54715
X65195Y-39475
X65195Y-42015
X65195Y-44555
X65195Y-47095
X65195Y-49635
X65195Y-52175
X65195Y-54715
X285050Y-59325
X285050Y-72025
X291275Y-77925
X291275Y-90625
X208240Y-70880
X220940Y-70880
X237275Y-93550
X237275Y-106250
X315125Y-84875
X315125Y-97575
X40125Y-112950
X40125Y-115490
X40125Y-118030
X40125Y-120570
X40125Y-123110
X40125Y-125650
X40125Y-128190
X47745Y-112950
X47745Y-115490
X47745Y-118030
X47745Y-120570
X47745Y-123110
X47745Y-125650
X47745Y-128190
X242400Y-34425
X242400Y-47125
X210075Y-109375
X210075Y-122075
X221625Y-34450
X221625Y-47150
X234075Y-34425
X234075Y-47125
X211000Y-149700
X211000Y-153500
X267750Y-77900
X267750Y-90600
X157975Y-76175
X157975Y-78715
X157975Y-81255
X157975Y-83795
X157975Y-86335
X157975Y-88875
X157975Y-91415
X157975Y-93955
X165595Y-76175
X165595Y-78715
X165595Y-81255
X165595Y-83795
X165595Y-86335
X165595Y-88875
X165595Y-91415
X165595Y-93955
X254800Y-59325
X254800Y-72025
X230375Y-125350
X230375Y-138050
X317050Y-105825
X317050Y-118525
X271800Y-126400
X271800Y-128900
X296825Y-37475
X296825Y-40015
X296825Y-42555
X296825Y-45095
X304445Y-37475
X304445Y-40015
X304445Y-42555
X304445Y-45095
X122025Y-127475
X122025Y-132475
X275650Y-75850
X275650Y-78390
X275650Y-80930
X275650Y-83470
X275650Y-86010
X275650Y-88550
X275650Y-91090
X283270Y-75850
X283270Y-78390
X283270Y-80930
X283270Y-83470
X283270Y-86010
X283270Y-88550
X283270Y-91090
X232450Y-94100
X232450Y-96600
X289200Y-59325
X289200Y-72025
X198625Y-51375
X198625Y-56375
X107225Y-70950
X119925Y-70950
X256150Y-52700
X258650Y-52700
X242900Y-109400
X242900Y-122100
X203850Y-149075
X203850Y-154075
X53075Y-109375
X53075Y-122075
X311550Y-124650
X311550Y-127150
X105050Y-87250
X105050Y-99950
X149400Y-52225
X149400Y-57125
X284150Y-34425
X284150Y-47125
X154025Y-40075
X154025Y-45075
X242825Y-125350
X242825Y-138050
X211000Y-126300
X213500Y-126300
X267450Y-34425
X267450Y-47125
X109825Y-39475
X109825Y-42015
X109825Y-44555
X109825Y-47095
X109825Y-49635
X109825Y-52175
X109825Y-54715
X117445Y-39475
X117445Y-42015
X117445Y-44555
X117445Y-47095
X117445Y-49635
X117445Y-52175
X117445Y-54715
X277100Y-63275
X277100Y-68275
X198700Y-65600
X198700Y-70600
X259825Y-125050
X259825Y-137750
X247700Y-78450
X247700Y-80950
X246575Y-34425
X246575Y-47125
X157975Y-112925
X157975Y-115465
X157975Y-118005
X157975Y-120545
X157975Y-123085
X157975Y-125625
X157975Y-128165
X157975Y-130705
X165595Y-112925
X165595Y-115465
X165595Y-118005
X165595Y-120545
X165595Y-123085
X165595Y-125625
X165595Y-128165
X165595Y-130705
X127325Y-39400
X127325Y-41940
X127325Y-44480
X127325Y-47020
X127325Y-49560
X127325Y-52100
X127325Y-54640
X134945Y-39400
X134945Y-41940
X134945Y-44480
X134945Y-47020
X134945Y-49560
X134945Y-52100
X134945Y-54640
X259100Y-34425
X259100Y-47125
X271650Y-112500
X271650Y-115000
X310975Y-84875
X310975Y-97575
X295150Y-77925
X295150Y-80425
X57575Y-76200
X57575Y-78740
X57575Y-81280
X57575Y-83820
X57575Y-86360
X57575Y-88900
X57575Y-91440
X65195Y-76200
X65195Y-78740
X65195Y-81280
X65195Y-83820
X65195Y-86360
X65195Y-88900
X65195Y-91440
X308730Y-63410
X312530Y-63410
T4
X277475Y-111025
X277475Y-113565
X277475Y-116105
X277475Y-118645
X277475Y-121185
X277475Y-123725
X277475Y-126265
X277475Y-128805
T5
X265380Y-164125
X267920Y-164125
X270460Y-164125
X273000Y-164125
X53025Y-128350
X194315Y-164125
X196855Y-164125
X199395Y-164125
X201935Y-164125
X204475Y-164125
X207015Y-164125
X209555Y-164125
X212095Y-164125
X214635Y-164125
X217175Y-164125
X219715Y-164125
X222255Y-164125
X224795Y-164125
X227335Y-164125
X229875Y-164125
X101400Y-149385
X101400Y-151925
X103940Y-149385
X103940Y-151925
X106480Y-149385
X106480Y-151925
X109020Y-149385
X109020Y-151925
X111560Y-149385
X111560Y-151925
X114100Y-149385
X114100Y-151925
X116640Y-149385
X116640Y-151925
X119180Y-149385
X119180Y-151925
X121720Y-149385
X121720Y-151925
X124260Y-149385
X124260Y-151925
X126800Y-149385
X126800Y-151925
X129340Y-149385
X129340Y-151925
X131880Y-149385
X131880Y-151925
X134420Y-149385
X134420Y-151925
X136960Y-149385
X136960Y-151925
X139500Y-149385
X139500Y-151925
X142040Y-149385
X142040Y-151925
X79150Y-138650
T6
X242025Y-144975
X247025Y-159975
X252025Y-144975
X236800Y-78300
X239300Y-88300
X241800Y-78300
X253350Y-78300
X255850Y-88300
X258350Y-78300
T7
X289195Y-119915
T0
M30
